<svg id="Layer_1" data-name="Layer 1" xmlns="http://www.w3.org/2000/svg" viewBox="0 0 300 39"><defs><style>.cls-1,.cls-16,.cls-19{fill:#fff;}.cls-1,.cls-16{stroke:#d9d9d9;}.cls-1{stroke-width:0.5px;}.cls-2{fill:#172b85;}.cls-10,.cls-11,.cls-17,.cls-19,.cls-2,.cls-3,.cls-4,.cls-8,.cls-9{fill-rule:evenodd;}.cls-3,.cls-5{fill:#253b80;}.cls-4,.cls-6{fill:#179bd7;}.cls-7{fill:#222d65;}.cls-8{fill:#ed0006;}.cls-9{fill:#f9a000;}.cls-10{fill:#ff5e00;}.cls-11{fill:#3c4043;}.cls-12{fill:#4285f4;}.cls-13{fill:#34a853;}.cls-14{fill:#fbbc04;}.cls-15{fill:#ea4335;}.cls-16{stroke-width:0.25px;}.cls-18{fill:#1f72cd;}</style></defs><rect class="cls-1" x="4.07" y="4.09" width="45.88" height="31.25" rx="3.66"/><path class="cls-2" d="M17.87,25.38H15.05l-2.11-8.07a1.3,1.3,0,0,0-.63-.85,9.22,9.22,0,0,0-2.58-.86v-.31h4.54a1.17,1.17,0,0,1,1.17,1l1.1,5.82,2.82-6.83H22.1Zm5.8,0H21L23.2,15.29h2.66Zm5.64-7.29a1,1,0,0,1,1.09-.86A5,5,0,0,1,33,17.7l.47-2.17A6.76,6.76,0,0,0,31,15.06c-2.58,0-4.46,1.4-4.46,3.34,0,1.47,1.33,2.25,2.27,2.71s1.41.78,1.33,1.24c0,.7-.78,1-1.57,1a6.68,6.68,0,0,1-2.74-.62l-.47,2.17a7.65,7.65,0,0,0,2.9.55c2.9.07,4.7-1.32,4.7-3.42C33,19.41,29.31,19.25,29.31,18.09Zm13,7.29L40.2,15.29H37.92a1.16,1.16,0,0,0-1.09.78l-3.92,9.31h2.74l.55-1.47h3.37l.31,1.47Zm-4-7.37.78,3.8H36.91Z"/><rect class="cls-1" x="151.24" y="4.09" width="45.88" height="31.25" rx="3.66"/><path class="cls-3" d="M164.08,24H162a.3.3,0,0,0-.29.24l-.83,5.3a.17.17,0,0,0,.17.2h1a.28.28,0,0,0,.28-.24l.23-1.43a.28.28,0,0,1,.28-.24h.65a2.13,2.13,0,0,0,2.36-2,1.65,1.65,0,0,0-.26-1.34A2,2,0,0,0,164.08,24Zm.24,1.93c-.12.75-.68.75-1.23.75h-.31l.21-1.39a.19.19,0,0,1,.17-.15h.15c.37,0,.72,0,.91.22A.71.71,0,0,1,164.32,26Zm5.94,0h-1a.17.17,0,0,0-.17.15l0,.27-.07-.1a1.42,1.42,0,0,0-1.17-.41,2.27,2.27,0,0,0-2.21,2,1.88,1.88,0,0,0,.36,1.52,1.56,1.56,0,0,0,1.25.51,1.89,1.89,0,0,0,1.37-.57l0,.27a.17.17,0,0,0,.17.2h.89a.3.3,0,0,0,.29-.24l.53-3.39A.17.17,0,0,0,170.26,25.94Zm-1.38,1.93a1.1,1.1,0,0,1-1.12.94.85.85,0,0,1-.66-.26.86.86,0,0,1-.16-.7,1.11,1.11,0,0,1,1.11-1,.82.82,0,0,1,.66.27A.87.87,0,0,1,168.88,27.87Zm5.66-1.93h1a.17.17,0,0,1,.14.27L172.37,31a.27.27,0,0,1-.24.12h-1a.17.17,0,0,1-.14-.27l1-1.45-1.1-3.22a.18.18,0,0,1,.17-.23h1a.29.29,0,0,1,.28.21l.58,1.94,1.38-2A.28.28,0,0,1,174.54,25.94Z"/><path class="cls-4" d="M185.34,29.57l.85-5.4a.16.16,0,0,1,.17-.14h.95a.17.17,0,0,1,.17.2l-.83,5.3a.3.3,0,0,1-.29.24h-.85A.17.17,0,0,1,185.34,29.57ZM178.84,24h-2.07a.28.28,0,0,0-.29.24l-.83,5.3a.17.17,0,0,0,.17.2h1.06a.2.2,0,0,0,.2-.17l.23-1.5a.29.29,0,0,1,.29-.24h.65a2.13,2.13,0,0,0,2.36-2,1.61,1.61,0,0,0-.27-1.34A1.92,1.92,0,0,0,178.84,24Zm.23,1.93c-.11.75-.68.75-1.23.75h-.31l.22-1.39a.19.19,0,0,1,.17-.15h.15c.37,0,.72,0,.9.22A.64.64,0,0,1,179.07,26Zm6,0h-1a.16.16,0,0,0-.17.15l0,.27-.07-.1a1.43,1.43,0,0,0-1.17-.41,2.29,2.29,0,0,0-2.22,2,1.88,1.88,0,0,0,.37,1.52,1.56,1.56,0,0,0,1.25.51,1.89,1.89,0,0,0,1.37-.57l0,.27a.17.17,0,0,0,.17.2h.89a.28.28,0,0,0,.28-.24l.54-3.39A.17.17,0,0,0,185,25.94Zm-1.38,1.93a1.11,1.11,0,0,1-1.12.94.76.76,0,0,1-.82-1,1.11,1.11,0,0,1,1.11-1,.82.82,0,0,1,.66.27A.87.87,0,0,1,183.64,27.87Z"/><path class="cls-5" d="M171.73,22.13l.26-1.62h-3.27L170.6,8.58a.14.14,0,0,1,.05-.1.17.17,0,0,1,.1,0h4.56a4,4,0,0,1,3.11.94,2.05,2.05,0,0,1,.49.93,3.19,3.19,0,0,1,0,1.28V12l.26.14a2.17,2.17,0,0,1,.52.4,1.93,1.93,0,0,1,.42.94,4.07,4.07,0,0,1-.06,1.37,5,5,0,0,1-.56,1.55,3.32,3.32,0,0,1-.89,1,3.66,3.66,0,0,1-1.2.54,6.17,6.17,0,0,1-1.49.17h-.36a1,1,0,0,0-.69.26,1.06,1.06,0,0,0-.36.64l0,.15L174,22l0,.1a.06.06,0,0,1,0,.06l0,0Z"/><path class="cls-6" d="M179.41,11.68c0,.09,0,.17,0,.27-.6,3.08-2.66,4.15-5.29,4.15h-1.33a.66.66,0,0,0-.65.55L171.41,21l-.2,1.23a.35.35,0,0,0,.34.4h2.38a.57.57,0,0,0,.56-.49l0-.12.45-2.83,0-.16a.56.56,0,0,1,.56-.48h.36c2.3,0,4.1-.93,4.63-3.64a3.1,3.1,0,0,0-.48-2.73A2.17,2.17,0,0,0,179.41,11.68Z"/><path class="cls-7" d="M178.78,11.43l-.28-.08-.3,0a7.34,7.34,0,0,0-1.18-.09h-3.58a.54.54,0,0,0-.25.06.57.57,0,0,0-.31.42l-.76,4.82,0,.14a.66.66,0,0,1,.65-.55h1.33c2.63,0,4.69-1.07,5.29-4.15,0-.1,0-.18,0-.27a3.61,3.61,0,0,0-.49-.21Z"/><path class="cls-5" d="M172.88,11.69a.57.57,0,0,1,.31-.42.54.54,0,0,1,.25-.06H177a7.34,7.34,0,0,1,1.18.09c.1,0,.2,0,.3.06l.28.07.14,0a3.61,3.61,0,0,1,.49.21,2.9,2.9,0,0,0-.62-2.62A4.51,4.51,0,0,0,175.31,8h-4.56a.65.65,0,0,0-.64.55l-1.9,12.05a.39.39,0,0,0,.38.45h2.82l.71-4.49Z"/><rect class="cls-1" x="52.23" y="4.09" width="45.88" height="31.25" rx="3.66"/><path class="cls-8" d="M75.51,26.57a9,9,0,0,1-5.89,2.2,9.18,9.18,0,0,1,0-18.36,9,9,0,0,1,5.89,2.19,9,9,0,0,1,5.89-2.19,9.18,9.18,0,0,1,0,18.36A9,9,0,0,1,75.51,26.57Z"/><path class="cls-9" d="M75.51,26.57a9.24,9.24,0,0,0,0-14,9,9,0,0,1,5.89-2.19,9.18,9.18,0,0,1,0,18.36A9,9,0,0,1,75.51,26.57Z"/><path class="cls-10" d="M75.51,26.57a9.24,9.24,0,0,0,0-14,9.24,9.24,0,0,0,0,14Z"/><rect class="cls-1" x="200.78" y="4.18" width="46.09" height="31.39" rx="3.67"/><path class="cls-11" d="M222.53,24.9v-4h2.08a3,3,0,0,0,2.16-.85l.14-.14a2.91,2.91,0,0,0-.14-4.07,3,3,0,0,0-2.16-.86h-3.34v10Zm0-5.26V16.16h2.11a1.73,1.73,0,0,1,1.21.49,1.78,1.78,0,0,1,0,2.47,1.61,1.61,0,0,1-1.25.52Zm10.26-1a3.47,3.47,0,0,0-4.9.57l1.11.7a1.93,1.93,0,0,1,1.67-.9,1.8,1.8,0,0,1,1.21.47,1.49,1.49,0,0,1,.52,1.13v.3a3.75,3.75,0,0,0-1.85-.42,3.26,3.26,0,0,0-2.1.63,2,2,0,0,0-.79,1.69,2.07,2.07,0,0,0,.74,1.66,2.66,2.66,0,0,0,1.86.67A2.41,2.41,0,0,0,232.34,24h0v.95h1.21V20.7A2.69,2.69,0,0,0,232.79,18.62Zm-3.42,5a1,1,0,0,1-.41-.83,1.13,1.13,0,0,1,.5-.93,2.16,2.16,0,0,1,1.29-.37,2.47,2.47,0,0,1,1.64.47,1.89,1.89,0,0,1-.62,1.4,2,2,0,0,1-1.42.6A1.48,1.48,0,0,1,229.37,23.64Zm6.94,4.25,4.21-9.81h-1.37l-2,4.9h0l-2-4.9h-1.37l2.76,6.38L235,27.89Z"/><path class="cls-12" d="M218.17,20a7.46,7.46,0,0,0-.09-1.16h-5.32V21h3.05a2.65,2.65,0,0,1-1.13,1.74V24.2h1.82A5.63,5.63,0,0,0,218.17,20Z"/><path class="cls-13" d="M212.76,25.58a5.37,5.37,0,0,0,3.74-1.38l-1.82-1.43a3.35,3.35,0,0,1-1.92.55A3.38,3.38,0,0,1,209.6,21h-1.87v1.48A5.61,5.61,0,0,0,212.76,25.58Z"/><path class="cls-14" d="M209.6,21a3.56,3.56,0,0,1,0-2.19V17.3h-1.87a5.72,5.72,0,0,0,0,5.13Z"/><path class="cls-15" d="M212.76,16.41a3,3,0,0,1,2.17.85l1.61-1.63a5.43,5.43,0,0,0-3.78-1.49,5.62,5.62,0,0,0-5,3.16l1.87,1.47A3.38,3.38,0,0,1,212.76,16.41Z"/><rect class="cls-16" x="249.91" y="4.18" width="46.09" height="31.39" rx="3.67"/><path class="cls-17" d="M260.73,15.78a2.07,2.07,0,0,0,1.65-.79A2.52,2.52,0,0,0,263,13.2a2.47,2.47,0,0,0-1.63.85A2.39,2.39,0,0,0,260.73,15.78Zm7.47,8.53V14H272a3.22,3.22,0,0,1,3.36,3.39,3.26,3.26,0,0,1-3.41,3.4h-2.19v3.53ZM263,15.91a3.5,3.5,0,0,0-1.47.33,2.14,2.14,0,0,1-.65.19,2,2,0,0,1-.68-.2A3,3,0,0,0,259,16a2.66,2.66,0,0,0-2.28,1.4c-1,1.71-.26,4.24.69,5.63.46.69,1,1.44,1.75,1.42a2.35,2.35,0,0,0,.8-.22,2.27,2.27,0,0,1,1-.24,2.31,2.31,0,0,1,1,.23,1.81,1.81,0,0,0,.85.21c.75,0,1.23-.69,1.7-1.38a5.93,5.93,0,0,0,.75-1.56v0h0a2.46,2.46,0,0,1-1.46-2.26A2.54,2.54,0,0,1,265,17h0A2.54,2.54,0,0,0,263,15.91Zm15.32,8.48a2.62,2.62,0,0,0,2.34-1.32h0v1.24h1.46V19.17c0-1.49-1.17-2.45-3-2.45s-2.92,1-3,2.31h1.42a1.4,1.4,0,0,1,1.5-1.05c1,0,1.51.46,1.51,1.3v.57l-2,.12c-1.83.11-2.83.87-2.83,2.19A2.26,2.26,0,0,0,278.27,24.39Zm.43-1.23c-.85,0-1.38-.41-1.38-1s.51-1,1.5-1.08l1.76-.11v.58A1.72,1.72,0,0,1,278.7,23.16ZM287,24.71c-.63,1.81-1.36,2.41-2.9,2.41a5.49,5.49,0,0,1-.6,0V25.84l.46,0c.7,0,1.09-.3,1.34-1.08l.14-.45-2.68-7.52h1.65l1.87,6.1h0l1.86-6.1h1.61Zm-17.18-9.37h1.83a1.91,1.91,0,0,1,2.15,2,1.92,1.92,0,0,1-2.16,2.06h-1.82Z"/><rect class="cls-18" x="102.21" y="4.3" width="45.57" height="31.04" rx="3.63"/><path class="cls-19" d="M110.3,15l-4.4,9.72h5.26l.65-1.55h1.49l.65,1.55h5.79V23.5l.52,1.18h3l.52-1.21v1.21h12l1.46-1.51,1.37,1.51h6.18l-4.4-4.84,4.4-4.89h-6.08l-1.43,1.48L136,15H122.89l-1.13,2.51L120.61,15h-5.24V16.1L114.78,15Zm18,1.38h6.91l2.12,2.28,2.18-2.28h2.11l-3.21,3.5,3.21,3.47h-2.21L137.27,21l-2.19,2.31h-6.81ZM130,19.06V17.78h4.31l1.88,2-2,2.05H130V20.48h3.77V19.06Zm-18.67-2.72h2.57l2.91,6.59V16.34h2.81l2.25,4.72,2.07-4.72h2.8v7H125l0-5.46-2.48,5.46H121l-2.49-5.46v5.46H115l-.66-1.56h-3.58l-.66,1.56h-1.88Zm.07,4,1.18-2.78,1.18,2.78Z"/></svg>