<svg xmlns="http://www.w3.org/2000/svg" id="flat" height="512" viewBox="0 0 512 512" width="512"><path d="m288 440-48-176-72 176-40 8 50.512-202.0482a81.69206 81.69206 0 0 1 21.488-37.9518h72l56 224z" fill="#8098ab"></path><circle cx="312" cy="400" fill="#ffc431" r="72"></circle><path d="m430.11148 384a28.94424 28.94424 0 0 0 25.88852-16l-6.01385-6.01385a55.73275 55.73275 0 0 1 -12.33755-60.10764 32.87582 32.87582 0 0 0 2.3514-12.20981 32.87581 32.87581 0 0 0 -24.90226-31.89422 12.92171 12.92171 0 0 0 -12.271 3.39887l-2.82674 2.82665-32 24v64a32 32 0 0 0 32 32z" fill="#c47220"></path><path d="m408 184-22.37988 20.12012-22.16016-9.5-28.86987-12.37012a32.10689 32.10689 0 0 1 -18.44019-21.6499l-3.22-12.89014a24.00431 24.00431 0 0 1 .38013 4.29 25.32679 25.32679 0 0 1 -17.31003 24.00004l-24 32h-72v-50.66992l22.67993-37.79a31.99727 31.99727 0 0 1 27.44019-15.54008h59.75976a31.99727 31.99727 0 0 1 27.44019 15.54l14.67993 24.46 38.16992 27.26z" fill="#ffceb6"></path><path d="m390.16992 171.26a47.7783 47.7783 0 0 0 -20.40992 15.27l-6.3 8.09009 22.16016 9.5 22.37984-20.12009z" fill="#ffbfa1"></path><path d="m352 144-29.3501 29.3501a31.93558 31.93558 0 0 1 -6.5-12.75l-3.22-12.89014a24.00431 24.00431 0 0 1 .38013 4.29 25.32679 25.32679 0 0 1 -17.31003 24.00004l-24 32h-72v-50.66992l22.67993-37.79a31.99727 31.99727 0 0 1 27.44019-15.54008h59.75976a31.99727 31.99727 0 0 1 27.44019 15.54z" fill="#02c26a"></path><path d="m168 440 24 16v16h-64v-24z" fill="#d1e4ff"></path><path d="m296 80v36a12 12 0 0 1 -24 0v-36z" fill="#ffceb6"></path><path d="m296 80v32a15.99564 15.99564 0 0 1 -16-16v-16z" fill="#ffbfa1"></path><circle cx="272" cy="64" fill="#b66514" r="24"></circle><path d="m272 80v-16a16 16 0 0 1 16-16 16 16 0 0 1 16 16v16z" fill="#c47220"></path><path d="m488 208h-16l5.62988 11.27a7.34306 7.34306 0 0 1 -10.63988 9.38991l-18.99-12.65991h-40l-32 48v48l18.8501 43.08984 37.1499 84.91016 26.53 13.27a9.88782 9.88782 0 0 1 -4.42014 18.73h-38.10986l-52.07007-98.35986-19.92993-37.64014a24.81946 24.81946 0 0 1 -28.6499-4.6499l-3.3501-3.3501-24 8-16-64 64-16 27.31006-35.12012 19.08008-24.52978a32.01468 32.01468 0 0 1 25.25976-12.3501h64.3501a15.99548 15.99548 0 0 1 16 16z" fill="#ffceb6"></path><path d="m64 424-24 48h-16v-72l9.818-6.182z" fill="#e0edff"></path><path d="m88 440 157.54768-68.499a97.96884 97.96884 0 0 0 42.45232-35.501l-16-64-2.67013-.66753a70.82437 70.82437 0 0 0 -54.91363 8.77583l-180.59806 113.70988 30.18182 30.18182 5.17647-2.82353z" fill="#548aff"></path><path d="m394.8501 355.08984-30.92017 18.5503-19.92993-37.64014a24.81946 24.81946 0 0 1 -28.6499-4.6499l-3.3501-3.3501-24 8-16-64 64-16 27.31006-35.12012 28.68994 19.12012-16 24v48z" fill="#91c0ff"></path><path d="m280 64a27.31368 27.31368 0 0 0 19.31369 8h4.68631v16a16 16 0 0 1 -16 16 16 16 0 0 1 -16-16v-16z" fill="#ffceb6"></path><path d="m238.72 175.04-6.72 8.96 16 64 10.53375 5.26688a9.88853 9.88853 0 0 1 5.46625 8.84457 9.88854 9.88854 0 0 1 -9.88853 9.88855h-6.11147l8 16-10.03336 3.34445a16 16 0 0 1 -19.766-8.87622l-35.7555-83.4295a32 32 0 0 1 1.97261-29.06886l12.27137-20.453z" fill="#ffceb6"></path><rect fill="#00b55b" height="16" rx="8" transform="matrix(.6 -.8 .8 .6 -31.867 263.31)" width="28.8" x="232.96" y="155.52"></rect><path d="m385.30005 292.8999-21.30005 7.1001a12.64911 12.64911 0 0 1 -8-24l21.02-7.00977 1.04 3.00977z" fill="#ffceb6"></path><path d="m88 440-18.824-18.824-5.176 2.824-24 48h24z" fill="#d1e4ff"></path><path d="m59.76063 367.99965h184.47874a8.00034 8.00034 0 0 1 8.00034 8.00035 8.00035 8.00035 0 0 1 -8.00035 8.00035h-184.47873a8.00034 8.00034 0 0 1 -8.00034-8.00035 8.00035 8.00035 0 0 1 8.00035-8.00035z" fill="#4976f2" transform="matrix(.878 -.479 .479 .878 -161.491 118.7)"></path><path d="m385.30005 292.8999-21.30005 7.1001a12.73118 12.73118 0 0 1 -4 .6499v-12.6499a15.99564 15.99564 0 0 1 16-16h2.06006z" fill="#ffbfa1"></path><path d="m392 296h-8a16 16 0 0 1 -16-16 16 16 0 0 1 16-16h16l8 16z" fill="#ffceb6"></path><circle cx="312" cy="400" fill="#ffb401" r="32"></circle></svg>