<svg xmlns="http://www.w3.org/2000/svg" xmlns:xlink="http://www.w3.org/1999/xlink" id="Layer_1" viewBox="0 0 300 300"><defs><style>.cls-1{fill:none;}.cls-2{clip-path:url(#clippath);}.cls-3{fill:#fabb18;}.cls-4{fill:#eb7427;}.cls-5{fill:#96c950;}.cls-6{fill:#cd2154;}.cls-7{fill:#464659;}</style><clipPath id="clippath"><rect class="cls-1" x="10.39" y="34.01" width="273.61" height="234.92"></rect></clipPath></defs><g class="cls-2"><g><path class="cls-5" d="M77.64,155.06c-14.74,3.94-31.18,4.05-46.5,4.24h-12.75c6.72,8.34,16.85,13.19,27.56,13.19h1.25c4.31,15.26,18.23,25.8,34.09,25.8,2.69,0,5.37-.32,8-.92-1.18-12.9-.37-27.34,5.05-38.95,2.29-4.85,5.7-9.1,9.95-12.38-8.92,2.73-17.61,6.34-26.64,8.7"></path><path class="cls-3" d="M155.47,111.69c-.46-3.11-1.47-6.12-2.98-8.88-.48-.91-1.09-1.74-1.81-2.47-.64-.72-1.36-1.38-2.14-1.95-5.04-2.98-10.7-4.76-16.55-5.2-6.26-.85-13.78-.77-17.76-6.6-3.69-5.23-2.65-13.01-3.98-18.98-.34-1.71-.82-3.38-1.44-5.01-14.38-13.19-36.74-12.22-49.93,2.16-9.4,10.26-11.92,25.08-6.41,37.86-2.15-.41-4.33-.62-6.52-.63-19.49,.08-35.25,15.92-35.23,35.41,0,3.34,.46,6.67,1.4,9.88,7.7,0,15.4,0,23.14-.33,14.3-.29,29.48-.48,43.11-4.9,10.43-3.86,21.06-7.17,31.84-9.91,10.65-2.17,22.11-2.8,30.88,4.42l2.1-.44c2.46-.45,4.82-1.34,6.96-2.62,1.53-.88,2.81-2.15,3.69-3.69,1.31-2.25,2.06-4.77,2.21-7.37,.3-3.69,.13-7.4-.48-11.06"></path><path class="cls-7" d="M123.37,71.75c.15,2.6,.53,5.17,1.14,7.7h.26l1.22,.33c3.35,.7,6.78,.92,10.17,1.44,6.17,.65,12.14,2.55,17.54,5.6,8.54,5.91,13.89,15.42,14.48,25.8,24.91,0,51.59-3.28,70.02-21.63,.43-.38,.88-.72,1.36-1.03v-1.4c.07-19.5-15.68-35.36-35.18-35.43-8.45-.03-16.62,2.97-23.05,8.45-4.15-19.05-22.95-31.13-42-26.99-9.36,2.04-17.49,7.79-22.52,15.93,1.9,2.91,3.4,6.05,4.46,9.36,1.11,3.88,1.88,7.85,2.28,11.87"></path><path class="cls-6" d="M256.66,178.69c-.24-5.37-2-10.56-5.09-14.96-7.19-7.71-17.11-12.31-27.64-12.82v6.67c0,3.42-2.77,6.19-6.19,6.19-3.42,0-6.19-2.77-6.19-6.19,.51-7.97-.5-15.96-2.98-23.55-2.7-6.22-8.84-10.24-15.62-10.21h-.55c-8.12,.98-16.29,1.46-24.47,1.44v.74c-1.95,13.52-12.38,20.71-25.13,22.88-6.89,1.18-14.08,1.14-20.86,2.8-5.34,1.03-10.17,3.86-13.67,8.03-3.42,4.96-5.52,10.7-6.12,16.69-.76,5.62-1.01,11.29-.74,16.95,14.28,13.24,36.6,12.4,49.84-1.88,1.7-1.84,3.2-3.85,4.48-6,6.51,6.1,15.1,9.49,24.03,9.47,4.35,0,8.66-.8,12.71-2.36,9.01,17.32,30.34,24.05,47.66,15.04,8.66-4.5,15.07-12.39,17.71-21.79-.48-2.32-.85-4.68-1.18-7.08"></path><path class="cls-4" d="M248.37,102c-1.29,0-2.58,0-3.69,.22-9.04,7.96-19.72,13.82-31.29,17.17,2.61,2.38,4.67,5.3,6.04,8.55,1.43,3.36,2.5,6.87,3.17,10.47,13.46,.2,26.35,5.46,36.11,14.74,3.88,4.03,6.72,8.93,8.29,14.3,16.61-10.33,21.7-32.17,11.36-48.77-6.45-10.37-17.79-16.69-30.01-16.71"></path><path class="cls-6" d="M167.59,192.69c5.33,2.82,11.19,4.48,17.21,4.86,12.05,1.47,16.36,13.97,17.72,18.43s7.37,26.57,22.88,39.83c15.51,13.27,14.48,2.25,20.3-.88,5.82-3.13,3.69-7.92-1.03-11.87-4.72-3.94-8.4-18.98-5.16-26.72,3.24-7.74,3.69-9.47,7.7-13.52,4.02-4.05-65.85-32.24-79.63-9.99"></path></g></g></svg>