<svg xmlns="http://www.w3.org/2000/svg" xmlns:xlink="http://www.w3.org/1999/xlink" id="Layer_1" viewBox="0 0 214 300"><defs><style>.cls-1{fill:none;}.cls-2{clip-path:url(#clippath);}.cls-3{fill:#87c9b5;}.cls-3,.cls-4,.cls-5,.cls-6,.cls-7,.cls-8,.cls-9,.cls-10{fill-rule:evenodd;}.cls-4{fill:#94dfc8;}.cls-5{fill:#d0d3d7;}.cls-6{fill:#ecafaf;}.cls-7{fill:#e7eaed;}.cls-8{fill:#e7c05b;}.cls-9{fill:#e6c5a6;}.cls-10{isolation:isolate;opacity:.1;}</style><clipPath id="clippath"><rect class="cls-1" x="3.99" y="7" width="206.01" height="286.7"></rect></clipPath></defs><g class="cls-2"><g><path class="cls-9" d="M107.54,61.55c4.28,2.56,8.49,3.82,10.46,3.32,4.94-1.28,5.4-19.41,1.56-26.55s-23.46-10.25-24.4,3.91c-.18,4.76,1.53,9.39,4.76,12.89l-5.47,25.48h15.86l-2.77-19.04Z"></path><path class="cls-8" d="M110.61,30.07c-2.08-.34-7.71-.57-8.74-.57-.66,0-1.4,.14-1.79-.46-.22-.62-.32-1.27-.3-1.92-.11-.69-.27-1.35-.43-2.01-.45-1.88-1.16-3.68-2.11-5.36-1.75-3.15-4.48-5.63-7.78-7.07-3.76-1.51-7.83-2.06-11.86-1.63-4.15,.53-8.21,1.56-12.11,3.07-3.8,1.31-7.85,1.71-11.83,1.14-3.79-.89-7.35-2.56-10.46-4.9-3.43-2.25-7.48-3.37-11.58-3.18-3.8,.4-7.44,1.78-10.55,4.01-3.04,1.8-5.44,4.51-6.87,7.74-1.68,3.5-1.31,7.63,.96,10.78,3.55,4.58,10.14,5.84,15.61,5.7,3.16-.07,6.29-.64,9.27-1.69,3.86-1.65,7.59-3.57,11.19-5.72,1.73-.95,3.56-1.71,5.45-2.29,1.74-.71,3.71-.57,5.33,.37,1.65,1.24,3.45,2.27,5.36,3.07,1.94,.72,4,1.09,6.07,1.1,4.01-.32,7.98-1.03,11.86-2.13,3.2-.91,6.55-1.15,9.84-.71,1.35,.27,3.32,.85,3.8,2.29-8.22,1.49-11.45,11.7-9.16,19.16,1.26,4.05,8.77,8.77,11.7,6.64,1.85-1.35,.73-3.11,0-4.28-1.4-2.29-1.88-5.08,.71-6.64,2.29-1.35,4.58,1.83,4.58,1.83,3.68-1.76,6.93-4.29,9.55-7.42,3.59,.23,4.14-2.15,3.27-4.1s-6.2-4.37-9.16-4.85l.18,.05Z"></path><polygon class="cls-9" points="90.49 135.46 139.57 217.66 176.35 287.13 184.27 287.13 122.63 135.46 90.49 135.46"></polygon><path class="cls-6" d="M173.33,283.19c-.66-.31-1.45-.03-1.77,.63-.02,.03-.03,.06-.04,.1-.57,1.42-.95,2.92-1.12,4.44,.09,1.75,.29,3.49,.6,5.22h37.27s1.47-4.81-1.67-5.2l-5.2-.69-17.31-7.74c-.32-.15-.7-.01-.85,.31,0,.01-.01,.03-.02,.04l-1.12,2.72c-1.48,.71-3.06,1.16-4.69,1.35-1.4-.17-2.76-.57-4.03-1.19h-.05Z"></path><path class="cls-3" d="M166.12,276.01l15.29-4.58s-10.05-30.08-24.63-66.2c-14.58-36.12-31.29-69.72-31.29-69.72h-43.13c11.73,26.44,24.89,52.23,39.44,77.23,13.38,22.03,28.18,43.17,44.32,63.27Z"></path><path class="cls-9" d="M87.26,135.46c-4.58,28.89-13.55,65.79-14.4,66.93-.56,.76-20.79,7.55-60.68,20.37l1.72,7c47.57-6.9,72.63-12.24,75.19-16.02,3.85-5.68,23.03-50.66,30.44-78.28h-32.28Z"></path><path class="cls-4" d="M26.19,216.72l3.02,11.26c35.6,3.14,57.41,.85,65.42-6.87,8.01-7.72,17.17-36.3,27.47-85.75h-41.2c-6.5,40.56-10.13,61.69-10.9,63.38-.76,1.69-15.37,7.65-43.81,17.88v.09Z"></path><path class="cls-6" d="M15.18,221.53c.19-.72-.24-1.46-.96-1.65-.02,0-.05-.01-.07-.02-1.51-.31-3.04-.42-4.58-.34-1.7,.4-3.37,.9-5.01,1.51,.34,2.04,6.46,36.62,6.46,36.62,0,0,4.99,.6,4.81-2.56-.18-3.16-.21-5.24-.21-5.24l4.58-18.43c.08-.36-.14-.71-.49-.8,0,0,0,0-.01,0l-2.84-.62c-.95-1.35-1.68-2.84-2.15-4.42-.08-1.41,.08-2.82,.48-4.17v.11Z"></path><path class="cls-9" d="M45.19,169.82c1.95-3.98,18.86-54.55,18.86-54.55h14.44s-23.78,53.61-24.79,56.15c-1.33,3.27,.92,8.06,2.45,11.28l.64,1.4c-2.13,.94-3.14-.21-4.21-1.42-1.11-1.9-3.55-2.53-5.45-1.42-.01,0-.03,.02-.04,.03-1.17,.55-2.29,1.19-3.34,1.81-3.73,2.29-7.14,4.17-11.79,1.28-.9-.67-1.09-1.95-.41-2.85,.21-.29,.5-.51,.82-.65,4.85-3.34,11.86-9.16,12.8-11.1l.02,.05Zm126.84-64.09l-26.07,3.55,4.58,11.72,21.17-8.4c9.16,.89,13.57,.66,13.23-.66-.25-1.12-1.24-1.46-2.13-1.76s-1.35-.48-1.56-1.05c-.53-1.3,2.43-4.01,5.36-6.43,2.93-2.43,.96-2.91-.27-2.86-5.05,1.3-9.89,3.29-14.4,5.91h.09Z"></path><path class="cls-5" d="M103.67,69.31l11.31,.76c2.79,25.18,17.99,41.2,51.98,35.85l4.58,32.55c-31.77,4.1-59.65-8.65-65.35-43.15-1.62-8.57-2.47-17.28-2.52-26Z"></path><path class="cls-7" d="M47.18,163.25c7.84-41.89,24.43-74.3,49.76-97.24h1.14l17.14,3.94c0,20.6,4.58,36.08,9,50.91,1.9,6.39,3.78,12.68,5.22,19.25h-46.33c-.64,7.51-1.06,15.22-1.26,23.14H47.18Z"></path><path class="cls-10" d="M83.12,140.11c1.14-14.63,3.7-29.12,7.62-43.26-.85,14.49-1.1,32.48,1.81,43.26h-9.43Z"></path></g></g></svg>