<svg xmlns="http://www.w3.org/2000/svg" xmlns:xlink="http://www.w3.org/1999/xlink" id="Layer_1" viewBox="0 0 300 300"><defs><style>.cls-1{fill:none;}.cls-2{clip-path:url(#clippath);}.cls-3{fill:#f9eec8;}.cls-4{fill:#fff;}.cls-5{fill:#ee976e;}.cls-6{fill:#7bc9c4;}.cls-7{fill:#92a2a1;}.cls-8{fill:#bc6252;}.cls-9{fill:#ce6c45;}.cls-10{fill:#bf603d;}.cls-11{fill:#d1785d;}.cls-12{fill:#de8069;}.cls-13{fill:#d2caa7;}.cls-14{fill:#c8745b;}.cls-15{fill:#0e0e0e;}.cls-16{fill:#1c0e10;}.cls-17{fill:#88736f;}</style><clipPath id="clippath"><rect class="cls-1" x="8.94" y="1.58" width="275.68" height="294.42"></rect></clipPath></defs><g class="cls-2"><g><path class="cls-3" d="M276.92,164.1c2.53-55.17-3.57-133.72-3.57-133.72,7.85-9.74,6.35-12.45,6.35-12.45-7.85-16.34-31.33,1.11-31.33,1.11-30.37-8.46-117.77-8.14-117.77-8.14,0,0-50.46-2.43-81.65,8.14,0,0-23.48-17.45-31.33-1.11,0,0-1.53,2.71,6.14,12.45,0,0-9.81,77.83-7.14,133.01,0,0-7.67,10.71-5.57,18.38,0,0,1.28,5.96,26.48-5.39,0,0,25.2,11.96,87.54,11.71,62.35-.25,130.9-10.99,130.9-10.99,25.2,11.35,26.48,5.39,26.48,5.39,2.14-7.82-5.53-18.38-5.53-18.38"></path><path class="cls-13" d="M255.97,177.09c25.2,11.35,26.48,5.39,26.48,5.39,2.14-7.82-5.53-18.38-5.53-18.38,2.53-55.17-3.57-133.72-3.57-133.72,7.85-9.74,6.35-12.45,6.35-12.45-.68-1.44-1.6-2.75-2.71-3.89-7.14,1.39-17.84,5.89-26.09,19.52,0,0,14.95,110.63-14.1,129.9-29.05,19.27-170.91,17.84-194.39,6.35-14.06-6.78-13.28,3.57-17.34,11.49,4.25-1.42,8.42-3.06,12.49-4.92,0,0,25.2,11.96,87.54,11.71s130.9-10.99,130.9-10.99"></path><path class="cls-6" d="M264.1,31.52s-14.1,105.28,2.57,132.04c0,0,15.35-82.87-2.57-132.04"></path><path class="cls-5" d="M147.44,185.76h-.39c-19.45,36.33-42.22,43.93-42.22,43.93l7.42,11.92c34.94-13.49,49.46-32.73,55.46-46.86-6.89-2.82-13.78-5.64-20.41-8.99"></path><path class="cls-5" d="M144.3,291.32h81.87v-95.96c0-9.67-9.53-17.52-21.41-17.52h-39.26c-11.71,0-21.23,7.85-21.23,17.52-7.78,20.73,0,44.86,0,44.86v51.1"></path><path class="cls-10" d="M165.07,182.66l2.28-.21c.76-.05,1.52-.05,2.28,0,.77-.05,1.55-.05,2.32,0,.75,0,1.53,0,2.28,.29l1.14,.21,1.14,.29,1.14,.32,1.14,.39,1.11,.5,1.07,.57c.36,.25,.75,.43,1.07,.68l1,.82-1.71-.29,1.5-.68,1.46-.61c1-.39,2-.75,3.03-1.07s2.03-.61,3.1-.86l1.57-.36,1.57-.25c.53-.04,1.07-.04,1.61,0h4.82c.53-.04,1.07-.04,1.61,0l1.61,.29c.52,.12,1.03,.28,1.53,.46l1.46,.61h-1.57c-1.02-.05-2.05-.05-3.07,0h-1.5l-1.53,.25-1.46,.25-1.5,.32-1.46,.39-2.93,.82-1.46,.46-1.43,.5-2.85,1.03-1.43,.57-1.36,.57-.93,.39-.79-.68-.71-.61-.79-.61-.86-.54-.93-.5-1.93-.86-1-.39-1.03-.36-2.07-.64-2.14-.57-4.43-1.03"></path><path class="cls-7" d="M144.3,291.32h81.87v-65.27c-17.59,11.99-27.34-24.05-12.17-47.18-2.61-.47-5.24-.79-7.89-.96-2.14,18.16-20.95,17.84-20.95,17.84-22.59-.36-20.45-12.74-18.63-17.84h-1.03c-11.71,0-21.23,7.85-21.23,17.52-7.78,20.73,0,44.86,0,44.86v51.03"></path><rect class="cls-5" x="172.89" y="157.93" width="24.55" height="20.98"></rect><path class="cls-14" d="M172.89,175.98v-11.96c2.39,1.37,5.1,2.06,7.85,2,5.28,0,9.67-2.25,10.42-5.1h1c1.79-.01,3.56-.27,5.28-.75v11.92c-8.07,1.93-16.28,3.23-24.55,3.89"></path><path class="cls-12" d="M159.18,111.07c1.86,5.67,.18,11.28-3.57,12.56-3.75,1.28-8.6-2.25-10.46-7.92s-.21-11.28,3.57-12.56c3.78-1.28,8.56,2.28,10.42,7.92"></path><path class="cls-8" d="M147.23,113.42s-.25-9.96,6.89-3.39c0,0,4.21,12.31-1.64,10.03-1.24-.79-2.06-2.1-2.21-3.57-.46-2.57-.79-5.25,2.28-4.64,0,0-3.14-6.32-5.32,1.43"></path><path class="cls-5" d="M169.64,57.72h31.15c9.13,.04,16.52,7.43,16.56,16.56v11.81c0,9.1-.54,23.98-1.21,33.08l-2,25.2c-.68,9.1-12.85,16.56-21.98,16.56h-1c-.75,2.85-5.14,5.1-10.42,5.1s-9.67-2.25-10.42-5.1h-.57c-9.06,0-13.45-8.24-13.49-16.56l-2-24.98c-.68-9.1-1.18-23.98-1.18-33.12v-12.13c.04-9.13,7.43-16.52,16.56-16.56"></path><path class="cls-17" d="M216.57,105.57c-.83,.81-1.98,1.22-3.14,1.11-2.32,0-5.28,11.74-8.56,18.16-3.28,6.42-11.63,8.99-15.74,7.14-3.09-1.28-6.29-2.26-9.56-2.93-15.17-2.25-19.63,4.53-19.63,4.53-1.78-.12-3.45-.88-4.71-2.14l1.03,12.95c0,8.32,4.43,16.56,13.49,16.56h.57c.75,2.85,5.14,5.1,10.42,5.1s9.67-2.25,10.42-5.1h1c9.14,0,21.41-7.46,21.98-16.56l2-25.2c.18-2.36,.36-5.07,.5-7.99,.14-2.93,0-5.6,0-5.6"></path><path class="cls-9" d="M176.42,101.97s-12.63,20.95-8.03,27.94c2.96,4.57,7.67,0,8.81-.25,0,0,11.96-1.03,6.46-7.39-1.03-1.52-3.1-1.91-4.61-.87-.15,.1-.29,.22-.42,.34,.17-2.4,.52-4.79,1.07-7.14,2.43-11.74-.61-14.99-3.28-12.67"></path><path class="cls-15" d="M219.03,103.68l-3.35,3h-2.28c.8-7.88,.59-15.83-.61-23.66,0,0-14.77-6-20.91-14.27,0,0,3.57,9.6,7.85,12.85,0,0-14.77-3.39-19.7-14.67,0,0-1.43,8.03,1.78,12.45-7.26-2.63-12.45-9.08-13.45-16.74,.21,4.9,1.26,9.73,3.1,14.27,0,0-12.21-1.21-13.63-12.78,0,0-5.28,2.03-4.39,17.06,.58,7.75,.58,15.52,0,23.27l-2.78-1.43c-.6-8.55-1.79-17.06-3.57-25.44-5.07-.96-9.26-4.51-11.03-9.35,0,0,4.35,0,6.57-6.89,1.62-4.92,5-9.06,9.49-11.63,0,0-7.53-2.78-11.28-1,4.92-6.84,12.68-11.07,21.09-11.49,0,0,.43-1.28-6.57-2.53,8.19-6.47,19.06-8.46,29.01-5.32l-2.21-4.78c8.7-.31,17.15,2.98,23.34,9.1l1.07-6.85c9.06,6.99,14.53,17.65,14.92,29.09,2.53-1.7,4.55-4.06,5.85-6.82-.28,2.95-.99,5.85-2.11,8.6,3.62,.11,7.16,1.07,10.35,2.78-3.58,.02-7,1.54-9.42,4.18,0,0,7.14,4.75,3.57,19.16-3.57,14.42-11.42,16.99-10.71,19.91"></path><path class="cls-5" d="M213.68,111.07c-2.03,6.14-.25,12.28,4,13.67,4.25,1.39,9.35-2.46,11.38-8.64,2.03-6.17,.21-12.28-4.03-13.67s-9.35,2.46-11.35,8.64"></path><path class="cls-11" d="M219.03,122.27c-3.03,0-6.17-7.14-.36-14.6,1.82-2.32,3.32-3.14,4.5-3.14,2.85,0,3.93,4.96,3.93,4.96-.96-1.49-2.53-2.48-4.28-2.71-3.57,0-5.21,6.96-5.21,6.96,.68-1.67,2.21-2.84,4-3.07,5.67,4.28-1.75,11.38-1.75,11.38-.25,.13-.53,.21-.82,.21"></path><path class="cls-15" d="M186.31,93.23c5.58-3.54,12.88-2.68,17.49,2.07,.1-4.65-3.59-8.5-8.24-8.6-.17,0-.34,0-.51,0-4.05-.04-7.63,2.63-8.74,6.53"></path><path class="cls-15" d="M172.14,93.44c-4.55-2.91-10.52-2.21-14.27,1.68-.16-3.78,2.77-6.98,6.55-7.14,.19,0,.39,0,.58,0,3.3-.03,6.22,2.14,7.14,5.32"></path><path class="cls-16" d="M167.46,101.4v3.07c.03,.84-.24,1.66-.75,2.32-.61,.9-1.83,1.13-2.73,.52-.21-.14-.38-.32-.52-.52-.51-.66-.78-1.48-.75-2.32v-3.07c0-.51-.42-.93-.93-.93s-.93,.42-.93,.93v3.07c-.02,1.29,.4,2.54,1.18,3.57,1.27,1.69,3.66,2.02,5.35,.76,.29-.22,.54-.47,.76-.76,.78-1.02,1.18-2.28,1.14-3.57v-3.07c0-.49-.4-.89-.89-.89-.5,0-.91,.39-.93,.89"></path><path class="cls-16" d="M195.44,101.4v3.07c0,.84-.31,1.65-.86,2.28-.51,.56-1.24,.88-2,.89-.76,0-1.49-.32-2-.89-.57-.62-.89-1.44-.89-2.28v-3.07c0-.49-.4-.89-.89-.89s-.89,.4-.89,.89v3.07c-.03,1.31,.44,2.59,1.32,3.57,.86,.95,2.07,1.5,3.35,1.5,1.27,0,2.48-.55,3.32-1.5,.9-.97,1.39-2.25,1.36-3.57v-3.07c-.02-.5-.43-.89-.93-.89-.49,0-.89,.4-.89,.89"></path><path class="cls-4" d="M166.07,135.8c6.16,2.66,13.22,2.28,19.06-1.03,0,0-7.82,15.49-19.06,1.03"></path><path class="cls-5" d="M221.1,184.08s25.94,23.73-10.35,88.36l-12.92-5.5s14.27-19.2,9.31-59.99l13.95-22.88"></path><path class="cls-5" d="M211.89,257.89s-18.49-1.25-49.96,12.28c0,0-10.71,2.68-20.52,4.64l-.89,9.03s57.1,6.1,71.84-12.85c0,0,2.18-4.32-.36-13.1"></path><path class="cls-5" d="M100.01,277.66l19.45,.43c0,.61,.07,1.22,.21,1.82l-15.38,3.57c-1.39,.13-2.42,1.37-2.29,2.76,.13,1.39,1.37,2.42,2.76,2.29,.23-.02,.45-.07,.67-.16l16.17-3.57c.63,1.02,1.43,1.92,2.36,2.68,0,0-7.82,2.82-10.31,4-3.28,1.53,.36,4.71,2.75,3.57,3.28-1.5,12.63-5.21,12.63-5.21,1.32,.25,2.68,.18,3.96-.21l5.5-1.64c2.18-.64,2.75-.21,3.93-2.11,1.72-.56,3.32-1.44,4.71-2.61-.96-3.78,1.39-6.78,2.53-10.14-.18,0-5.17-.61-5.35-.71-2.46-5.67-8.85-12.31-13.92-12.03-3.67-1.59-6.9-4.04-9.42-7.14-1.12,1.2-1.37,2.97-.61,4.43,1.1,3.28,3.62,5.9,6.85,7.14l-.93,2.03c-.84,.27-1.65,.65-2.39,1.14l-14.27-5.14c-1.34-.53-2.85,.12-3.39,1.45,0,0,0,0,0,.01-.42,1.37,.32,2.82,1.68,3.28l12.63,4.53c-.13,.25-.24,.52-.32,.79l-20.02-.43c-1.44-.06-2.67,1.03-2.78,2.46,.04,1.44,1.23,2.59,2.68,2.57"></path><path class="cls-5" d="M114.79,240.58s-1.61-18.45-19.84-47.46c0,0-4.28-10.06-7.74-19.56l-9.06,.39s2.78,57.35,23.77,69.02c0,0,4.6,1.46,12.88-2.39"></path><path class="cls-5" d="M77.99,133.12l2.61,19.27c-.6,.13-1.2,.3-1.78,.5l-5.92-14.63c-.4-1.34-1.8-2.11-3.15-1.72-1.34,.4-2.11,1.8-1.72,3.15,.05,.16,.11,.31,.19,.46l6.21,15.38c-.9,.79-1.67,1.72-2.28,2.75-1.43-3.31-3.28-6.43-5.5-9.28-.82-.82-4.25,.29-3.28,3.35,2.02,3.99,4.41,7.78,7.14,11.31-.02,1.34,.28,2.68,.86,3.89l2.46,5.17c.96,2.03,.64,2.68,2.68,3.57,.82,1.61,1.95,3.04,3.32,4.21,3.57-1.5,6.89,.36,10.38,.96,0,0-.18-5.25,0-5.42,5.25-3.28,10.71-10.71,9.74-15.6,.98-3.84,2.85-7.4,5.46-10.38-1.34-.95-3.13-.95-4.46,0-3.11,1.58-5.34,4.48-6.07,7.89l-2.18-.57c-.38-.81-.89-1.56-1.5-2.21l2.89-14.95c.37-1.35-.43-2.74-1.78-3.11-1.35-.37-2.74,.43-3.11,1.78-.03,.12-.06,.25-.07,.37l-2.53,13.17h-.82l-2.78-19.95c-.05-1.4-1.22-2.49-2.62-2.45s-2.49,1.22-2.45,2.62c0,.17,.03,.34,.07,.5"></path></g></g></svg>