<svg xmlns="http://www.w3.org/2000/svg" id="Icons" height="512" viewBox="0 0 60 60" width="512"><path d="m59 49.3v7.7a2 2 0 0 1 -2 2h-54a2 2 0 0 1 -2-2v-7.7z" fill="#9ebbce"></path><path d="m1.106 48.714 12.41-33.414a2 2 0 0 1 1.875-1.3h29.218a2 2 0 0 1 1.875 1.3l12.41 33.41a1.7 1.7 0 0 1 .106.591 1.7 1.7 0 0 1 -1.7 1.7h-54.6a1.7 1.7 0 0 1 -1.7-1.696 1.7 1.7 0 0 1 .106-.591z" fill="#bfdbf0"></path><path d="m51.61 45h-43.22l9.78-31h23.66z" fill="#3778c6"></path><path d="m39 0a4 4 0 0 0 -4 4v4h-10v-4a2 2 0 0 1 4 0 1 1 0 0 0 2 0 4 4 0 0 0 -8 0v20.39a1 1 0 0 0 2 0v-4.39h10v3.62a1 1 0 1 0 2 0v-19.62a2 2 0 0 1 4 0 1 1 0 0 0 2 0 4 4 0 0 0 -4-4zm-4 10v3h-10v-3zm-10 8v-3h10v3z" fill="#40405b"></path><g fill="#2d629b"><path d="m40 26a6.6 6.6 0 0 1 -3.849-1.143 5.065 5.065 0 0 0 -5.638 0 6.6 6.6 0 0 1 -3.849 1.143 6.6 6.6 0 0 1 -3.847-1.143 4.65 4.65 0 0 0 -2.817-.857 1 1 0 0 1 0-2 6.6 6.6 0 0 1 3.847 1.143 5.062 5.062 0 0 0 5.636 0 7.052 7.052 0 0 1 7.7 0 4.663 4.663 0 0 0 2.817.857 1 1 0 0 1 0 2z"></path><path d="m41 32a7.617 7.617 0 0 1 -4.146-1.122 6.23 6.23 0 0 0 -6.378 0 7.622 7.622 0 0 1 -4.146 1.122 7.614 7.614 0 0 1 -4.144-1.122 5.687 5.687 0 0 0 -3.186-.878 1 1 0 0 1 0-2 7.621 7.621 0 0 1 4.145 1.122 5.681 5.681 0 0 0 3.185.878 5.7 5.7 0 0 0 3.189-.878 8.221 8.221 0 0 1 8.292 0 5.7 5.7 0 0 0 3.189.878 1 1 0 0 1 0 2z"></path><path d="m43 39a9.948 9.948 0 0 1 -4.753-1.092 7.941 7.941 0 0 0 -3.916-.908 7.94 7.94 0 0 0 -3.915.908 9.948 9.948 0 0 1 -4.753 1.092 9.942 9.942 0 0 1 -4.751-1.092 7.933 7.933 0 0 0 -3.912-.908 1 1 0 0 1 0-2 9.937 9.937 0 0 1 4.75 1.092 7.934 7.934 0 0 0 3.913.908 7.94 7.94 0 0 0 3.915-.908 9.948 9.948 0 0 1 4.753-1.092 9.953 9.953 0 0 1 4.754 1.092 7.94 7.94 0 0 0 3.915.908 1 1 0 0 1 0 2z"></path></g></svg>